<?xml version="1.0" encoding="UTF-8" standalone="no"?><svg xmlns="http://www.w3.org/2000/svg" xmlns:xlink="http://www.w3.org/1999/xlink" contentStyleType="text/css" height="372px" preserveAspectRatio="none" style="width:775px;height:372px;background:#FFFFFF;" version="1.1" viewBox="0 0 775 372" width="775px" zoomAndPan="magnify"><defs/><g><rect fill="none" height="208.1289" style="stroke:#000000;stroke-width:1.5;" width="758" x="10" y="112.1094"/><line style="stroke:#181818;stroke-width:0.5;stroke-dasharray:5.0,5.0;" x1="47" x2="47" y1="36.4883" y2="337.2383"/><line style="stroke:#181818;stroke-width:0.5;stroke-dasharray:5.0,5.0;" x1="284.5" x2="284.5" y1="36.4883" y2="337.2383"/><line style="stroke:#181818;stroke-width:0.5;stroke-dasharray:5.0,5.0;" x1="570" x2="570" y1="36.4883" y2="337.2383"/><line style="stroke:#181818;stroke-width:0.5;stroke-dasharray:5.0,5.0;" x1="718" x2="718" y1="36.4883" y2="337.2383"/><rect fill="#E2E2F0" height="30.4883" rx="2.5" ry="2.5" style="stroke:#181818;stroke-width:0.5;" width="54" x="20" y="5"/><text fill="#000000" font-family="sans-serif" font-size="14" lengthAdjust="spacing" textLength="40" x="27" y="25.5352">Client</text><rect fill="#E2E2F0" height="30.4883" rx="2.5" ry="2.5" style="stroke:#181818;stroke-width:0.5;" width="54" x="20" y="336.2383"/><text fill="#000000" font-family="sans-serif" font-size="14" lengthAdjust="spacing" textLength="40" x="27" y="356.7734">Client</text><rect fill="#E2E2F0" height="30.4883" rx="2.5" ry="2.5" style="stroke:#181818;stroke-width:0.5;" width="97" x="236.5" y="5"/><text fill="#000000" font-family="sans-serif" font-size="14" lengthAdjust="spacing" textLength="83" x="243.5" y="25.5352">API Gateway</text><rect fill="#E2E2F0" height="30.4883" rx="2.5" ry="2.5" style="stroke:#181818;stroke-width:0.5;" width="97" x="236.5" y="336.2383"/><text fill="#000000" font-family="sans-serif" font-size="14" lengthAdjust="spacing" textLength="83" x="243.5" y="356.7734">API Gateway</text><rect fill="#E2E2F0" height="30.4883" rx="2.5" ry="2.5" style="stroke:#181818;stroke-width:0.5;" width="68" x="536" y="5"/><text fill="#000000" font-family="sans-serif" font-size="14" lengthAdjust="spacing" textLength="54" x="543" y="25.5352">Lambda</text><rect fill="#E2E2F0" height="30.4883" rx="2.5" ry="2.5" style="stroke:#181818;stroke-width:0.5;" width="68" x="536" y="336.2383"/><text fill="#000000" font-family="sans-serif" font-size="14" lengthAdjust="spacing" textLength="54" x="543" y="356.7734">Lambda</text><rect fill="#E2E2F0" height="30.4883" rx="2.5" ry="2.5" style="stroke:#181818;stroke-width:0.5;" width="80" x="678" y="5"/><text fill="#000000" font-family="sans-serif" font-size="14" lengthAdjust="spacing" textLength="66" x="685" y="25.5352">S3 Bucket</text><rect fill="#E2E2F0" height="30.4883" rx="2.5" ry="2.5" style="stroke:#181818;stroke-width:0.5;" width="80" x="678" y="336.2383"/><text fill="#000000" font-family="sans-serif" font-size="14" lengthAdjust="spacing" textLength="66" x="685" y="356.7734">S3 Bucket</text><polygon fill="#181818" points="273,63.7988,283,67.7988,273,71.7988,277,67.7988" style="stroke:#181818;stroke-width:1.0;"/><line style="stroke:#181818;stroke-width:1.0;" x1="47" x2="279" y1="67.7988" y2="67.7988"/><text fill="#000000" font-family="sans-serif" font-size="13" lengthAdjust="spacing" textLength="213" x="54" y="63.0566">Request data with/without header</text><polygon fill="#181818" points="558,93.1094,568,97.1094,558,101.1094,562,97.1094" style="stroke:#181818;stroke-width:1.0;"/><line style="stroke:#181818;stroke-width:1.0;" x1="285" x2="564" y1="97.1094" y2="97.1094"/><text fill="#000000" font-family="sans-serif" font-size="13" lengthAdjust="spacing" textLength="95" x="292" y="92.3672">Invoke Lambda</text><path d="M10,112.1094 L72,112.1094 L72,119.4199 L62,129.4199 L10,129.4199 L10,112.1094 " fill="#EEEEEE" style="stroke:#000000;stroke-width:1.5;"/><rect fill="none" height="208.1289" style="stroke:#000000;stroke-width:1.5;" width="758" x="10" y="112.1094"/><text fill="#000000" font-family="sans-serif" font-size="13" font-weight="bold" lengthAdjust="spacing" textLength="17" x="25" y="125.6777">alt</text><text fill="#000000" font-family="sans-serif" font-size="11" font-weight="bold" lengthAdjust="spacing" textLength="341" x="87" y="124.7441">[If "Accept: application:large-response.vnd+json" is present]</text><polygon fill="#181818" points="706,146.7305,716,150.7305,706,154.7305,710,150.7305" style="stroke:#181818;stroke-width:1.0;"/><line style="stroke:#181818;stroke-width:1.0;" x1="570" x2="712" y1="150.7305" y2="150.7305"/><text fill="#000000" font-family="sans-serif" font-size="13" lengthAdjust="spacing" textLength="124" x="577" y="145.9883">Save large response</text><polygon fill="#181818" points="581,176.041,571,180.041,581,184.041,577,180.041" style="stroke:#181818;stroke-width:1.0;"/><line style="stroke:#181818;stroke-width:1.0;" x1="575" x2="717" y1="180.041" y2="180.041"/><text fill="#000000" font-family="sans-serif" font-size="13" lengthAdjust="spacing" textLength="81" x="587" y="175.2988">Return S3 ref</text><polygon fill="#181818" points="296,205.3516,286,209.3516,296,213.3516,292,209.3516" style="stroke:#181818;stroke-width:1.0;"/><line style="stroke:#181818;stroke-width:1.0;" x1="290" x2="569" y1="209.3516" y2="209.3516"/><text fill="#000000" font-family="sans-serif" font-size="13" lengthAdjust="spacing" textLength="261" x="302" y="204.6094">Return S3 ref `{ $payload_ref: "s3://..." }`</text><polygon fill="#181818" points="58,234.6621,48,238.6621,58,242.6621,54,238.6621" style="stroke:#181818;stroke-width:1.0;"/><line style="stroke:#181818;stroke-width:1.0;" x1="52" x2="284" y1="238.6621" y2="238.6621"/><text fill="#000000" font-family="sans-serif" font-size="13" lengthAdjust="spacing" textLength="126" x="64" y="233.9199">Return $payload_ref</text><line style="stroke:#000000;stroke-width:1.0;stroke-dasharray:2.0,2.0;" x1="10" x2="768" y1="247.6621" y2="247.6621"/><text fill="#000000" font-family="sans-serif" font-size="11" font-weight="bold" lengthAdjust="spacing" textLength="184" x="15" y="258.2969">[If request header is not present]</text><polygon fill="#181818" points="296,278.9277,286,282.9277,296,286.9277,292,282.9277" style="stroke:#181818;stroke-width:1.0;"/><line style="stroke:#181818;stroke-width:1.0;" x1="290" x2="569" y1="282.9277" y2="282.9277"/><text fill="#000000" font-family="sans-serif" font-size="13" lengthAdjust="spacing" textLength="224" x="302" y="278.1855">Response 500 (Internal Server Error)</text><polygon fill="#181818" points="58,308.2383,48,312.2383,58,316.2383,54,312.2383" style="stroke:#181818;stroke-width:1.0;"/><line style="stroke:#181818;stroke-width:1.0;" x1="52" x2="284" y1="312.2383" y2="312.2383"/><text fill="#000000" font-family="sans-serif" font-size="13" lengthAdjust="spacing" textLength="214" x="64" y="307.4961">Response 413 (Payload Too Large)</text><!--MD5=[140ceae76525984869a312cf4433e17b]
@startuml "Architecture - Sequence Diagram"

participant Client
participant "API Gateway"
participant Lambda
participant "S3 Bucket"

Client -> "API Gateway": Request data with/without header
"API Gateway" -> Lambda: Invoke Lambda

alt If "Accept: application:large-response.vnd+json" is present
    Lambda -> "S3 Bucket": Save large response
    "S3 Bucket" -> Lambda: Return S3 ref
    Lambda -> "API Gateway": Return S3 ref `{ $payload_ref: "s3://..." }`
    "API Gateway" -> Client: Return $payload_ref
else If request header is not present
    Lambda -> "API Gateway": Response 500 (Internal Server Error)
    "API Gateway" -> Client: Response 413 (Payload Too Large)
end

@enduml

PlantUML version 1.2022.7(Mon Aug 22 18:01:30 WEST 2022)
(GPL source distribution)
Java Runtime: Java(TM) SE Runtime Environment
JVM: Java HotSpot(TM) 64-Bit Server VM
Default Encoding: UTF-8
Language: en
Country: PT
--></g></svg>